<svg width="120" height="120" viewBox="0 0 120 120" fill="none" xmlns="http://www.w3.org/2000/svg">
<g clip-path="url(#clip0_246_3536)">
<path d="M92.2251 43.2955C92.2744 44.0103 92.2744 44.7251 92.2744 45.4465C92.2744 67.4282 75.5596 92.7797 44.9958 92.7797V92.7665C35.9671 92.7797 27.126 90.1905 19.5254 85.3086C20.8382 85.4668 22.1576 85.5458 23.4804 85.5491C30.9626 85.5557 38.2309 83.0423 44.1173 78.414C37.0069 78.279 30.7717 73.6376 28.5935 66.8616C31.0843 67.3425 33.6507 67.2437 36.0955 66.575C28.3435 65.007 22.7664 58.1882 22.7664 50.2691C22.7664 50.1966 22.7664 50.1275 22.7664 50.0583C25.0762 51.3463 27.6624 52.0611 30.3078 52.1402C23.0066 47.255 20.756 37.5308 25.165 29.9279C33.6014 40.3209 46.0487 46.639 59.4107 47.3077C58.0715 41.5298 59.9009 35.4752 64.2178 31.4136C70.9104 25.1152 81.4361 25.4381 87.7272 32.135C91.4485 31.4004 95.0153 30.0333 98.2793 28.0964C97.0388 31.9472 94.4427 35.2183 90.9747 37.2969C94.2684 36.9082 97.4863 36.0253 100.517 34.6781C98.2858 38.0249 95.4759 40.9402 92.2251 43.2955Z" fill="#111111"/>
</g>
<defs>
<clipPath id="clip0_246_3536">
<rect width="81.6" height="67.2" fill="white" transform="translate(19.1992 26.4)"/>
</clipPath>
</defs>
</svg>
