<svg width="120" height="120" viewBox="0 0 120 120" fill="none" xmlns="http://www.w3.org/2000/svg">
<g clip-path="url(#clip0_246_3532)">
<path d="M88.2751 34.3568C83.0742 32.0011 77.497 30.2654 71.6657 29.2714C71.5595 29.2522 71.4534 29.3001 71.3987 29.396C70.6815 30.6554 69.887 32.2983 69.3306 33.5897C63.0586 32.6627 56.8189 32.6627 50.6756 33.5897C50.1191 32.2696 49.2957 30.6554 48.5752 29.396C48.5205 29.3033 48.4144 29.2554 48.3082 29.2714C42.4802 30.2623 36.903 31.9979 31.6988 34.3568C31.6538 34.376 31.6152 34.408 31.5895 34.4495C21.0108 50.0511 18.1128 65.2692 19.5345 80.2987C19.5409 80.3722 19.5827 80.4425 19.6406 80.4872C26.6202 85.5471 33.3811 88.6189 40.0164 90.6549C40.1226 90.6869 40.2351 90.6486 40.3027 90.5622C41.8723 88.4463 43.2715 86.2152 44.4711 83.869C44.5419 83.7316 44.4743 83.5686 44.3296 83.5142C42.1103 82.6832 39.9971 81.6699 37.9643 80.5192C37.8036 80.4265 37.7907 80.1995 37.9386 80.0908C38.3664 79.7744 38.7943 79.4452 39.2027 79.1127C39.2766 79.052 39.3796 79.0392 39.4665 79.0776C52.8208 85.0965 67.2785 85.0965 80.4753 79.0776C80.5622 79.036 80.6652 79.0489 80.7423 79.1096C81.1509 79.442 81.5786 79.7744 82.0096 80.0908C82.1575 80.1995 82.1479 80.4265 81.9871 80.5192C79.9543 81.6922 77.8411 82.6832 75.6186 83.511C75.4739 83.5654 75.4096 83.7316 75.4804 83.869C76.7057 86.2119 78.1049 88.443 79.6455 90.5591C79.7099 90.6486 79.8256 90.6869 79.9318 90.6549C86.5993 88.6189 93.3602 85.5471 100.34 80.4872C100.401 80.4425 100.439 80.3754 100.446 80.3019C102.147 62.9262 97.5961 47.8329 88.3812 34.4527C88.3587 34.408 88.3202 34.376 88.2751 34.3568ZM46.4653 71.1473C42.4448 71.1473 39.1319 67.5035 39.1319 63.0285C39.1319 58.5535 42.3805 54.9097 46.4653 54.9097C50.5822 54.9097 53.863 58.5855 53.7987 63.0285C53.7987 67.5035 50.5501 71.1473 46.4653 71.1473ZM73.5794 71.1473C69.5589 71.1473 66.2461 67.5035 66.2461 63.0285C66.2461 58.5535 69.4946 54.9097 73.5794 54.9097C77.6964 54.9097 80.9771 58.5855 80.9128 63.0285C80.9128 67.5035 77.6964 71.1473 73.5794 71.1473Z" fill="#111111"/>
</g>
<defs>
<clipPath id="clip0_246_3532">
<rect width="81.6" height="62.4" fill="white" transform="translate(19.1992 28.8)"/>
</clipPath>
</defs>
</svg>
