<svg width="120" height="120" viewBox="0 0 120 120" fill="none" xmlns="http://www.w3.org/2000/svg">
<path d="M24.0536 64.0835L24.3391 63.6289L41.5567 36.3421C41.8083 35.9424 42.3999 35.9839 42.5904 36.4178C45.4667 42.9485 47.9488 51.0705 46.786 56.1269C46.2896 58.2073 44.9295 61.0249 43.3995 63.6289C43.2024 64.0078 42.9847 64.3799 42.7535 64.7381C42.6448 64.9033 42.4611 64.9999 42.2638 64.9999H24.5567C24.0806 64.9999 23.8019 64.4763 24.0536 64.0835Z" fill="#111111"/>
<path d="M100.797 69.154V73.4733C100.797 73.7212 100.648 73.9418 100.43 74.0382C99.0973 74.6169 94.5345 76.7387 92.6373 79.4115C87.7957 86.2384 84.0965 96 75.8276 96H41.3312C29.1049 96 19.1973 85.9284 19.1973 73.5009V73.1012C19.1973 72.7706 19.4625 72.502 19.7888 72.502H39.0192C39.4 72.502 39.6789 72.8602 39.6449 73.2391C39.5089 74.5066 39.7401 75.8018 40.3316 76.9798C41.474 79.3288 43.8405 80.7962 46.3972 80.7962H55.9173V73.2666H46.5061C46.0232 73.2666 45.7377 72.7018 46.0164 72.3021C46.1185 72.1438 46.2341 71.9784 46.3565 71.7924C47.2472 70.5111 48.5189 68.5202 49.7836 66.2537C50.6472 64.7245 51.4837 63.0917 52.1569 61.4522C52.2929 61.156 52.4016 60.8529 52.5105 60.5566C52.694 60.0331 52.8845 59.5439 53.0204 59.0549C53.1564 58.6416 53.2653 58.2075 53.3741 57.8011C53.6937 56.4095 53.8296 54.9353 53.8296 53.4059C53.8296 52.8066 53.8024 52.1798 53.748 51.5804C53.7209 50.9259 53.6393 50.2715 53.5577 49.6171C53.5032 49.0384 53.4013 48.4666 53.2925 47.8674C53.1564 46.9924 52.9661 46.1245 52.7484 45.2495L52.6737 44.9189C52.5105 44.3196 52.3744 43.7477 52.1841 43.1484C51.6468 41.2677 51.028 39.4353 50.3753 37.72C50.1373 37.038 49.8652 36.3836 49.5933 35.7292C49.192 34.7439 48.784 33.8484 48.41 33.0011C48.2197 32.6153 48.0564 32.2639 47.8933 31.9057C47.7096 31.4993 47.5193 31.0929 47.3288 30.707C47.1929 30.4108 47.0364 30.1353 46.9276 29.8598L45.7649 27.6829C45.6017 27.3866 45.8736 27.0353 46.1932 27.1248L53.4693 29.1227H53.4897C53.5032 29.1227 53.51 29.1295 53.5169 29.1295L54.4756 29.3982L55.5297 29.7012L55.9173 29.8115V25.4302C55.9173 23.3153 57.59 21.6 59.6572 21.6C60.6909 21.6 61.6293 22.027 62.3025 22.7229C62.9756 23.4187 63.3973 24.3693 63.3973 25.4302V31.9333L64.1724 32.1537C64.2336 32.1744 64.2948 32.202 64.3492 32.2432C64.5397 32.3879 64.8116 32.6016 65.1585 32.8632C65.4304 33.0838 65.7228 33.3524 66.0765 33.6279C66.7769 34.1998 67.6132 34.9369 68.5313 35.7841C68.776 35.9978 69.014 36.2182 69.2317 36.4387C70.4148 37.5546 71.7409 38.8636 73.0056 40.3102C73.3592 40.7166 73.706 41.1299 74.0596 41.5639C74.4133 42.0048 74.7872 42.4389 75.1137 42.8729C75.542 43.4515 76.0044 44.0508 76.4057 44.6778C76.596 44.974 76.8137 45.2771 76.9972 45.5733C77.5141 46.3656 77.9697 47.1854 78.4049 48.005C78.5885 48.3839 78.7788 48.7973 78.9421 49.2038C79.4248 50.2991 79.8057 51.4151 80.0505 52.5311C80.1253 52.7722 80.1796 53.034 80.2068 53.2683V53.3232C80.2884 53.654 80.3156 54.0054 80.3429 54.3636C80.4517 55.507 80.3973 56.6506 80.1524 57.8011C80.0505 58.2902 79.9144 58.7517 79.7513 59.2409C79.588 59.7093 79.4248 60.1984 79.214 60.66C78.806 61.6175 78.3233 62.5751 77.752 63.4706C77.5685 63.8013 77.3508 64.1526 77.1333 64.4832C76.8953 64.8346 76.6504 65.1654 76.4329 65.4891C76.1337 65.9025 75.8141 66.3364 75.4876 66.7221C75.1952 67.1286 74.896 67.5351 74.5697 67.8933C74.114 68.4375 73.6788 68.9542 73.2233 69.4502C72.9512 69.774 72.6588 70.1047 72.3596 70.4009C72.0673 70.7315 71.7681 71.0277 71.496 71.3032C71.0405 71.7648 70.6597 72.123 70.3401 72.4193L69.592 73.1151C69.4832 73.2115 69.3404 73.2666 69.1908 73.2666H63.3973V80.7962H70.6869C72.3189 80.7962 73.8693 80.2106 75.1205 79.136C75.5488 78.7571 77.4189 77.1175 79.6289 74.6445C79.7036 74.5618 79.7988 74.4998 79.9076 74.4722L100.042 68.5753C100.416 68.465 100.797 68.7544 100.797 69.154Z" fill="#111111"/>
</svg>
